<svg xmlns="http://www.w3.org/2000/svg" width="400" height="400" preserveAspectRatio="xMidYMid meet" version="1.0" viewBox="0 0 300 300"><metadata>Created by potrace 1.11, written by Peter Selinger 2001-2013</metadata><g fill="#000" stroke="none"><path d="M0 2260 l0 -740 39 0 40 0 3 48 3 47 140 5 140 5 5 50 5 50 139 5 140 5 0 45 1 45 155 5 155 5 5 35 5 35 85 5 85 5 3 47 3 47 47 3 47 3 5 100 5 100 50 5 c48 5 50 6 55 40 4 31 9 35 37 38 30 3 32 5 35 50 l3 47 53 3 c48 3 52 1 53 -20 3 -77 0 -73 54 -78 l50 -5 3 -87 c3 -96 3 -96 76 -88 25 2 36 -17 36 -62 0 -21 3 -39 8 -39 4 -1 106 -4 227 -8 l220 -6 5 -50 5 -50 150 0 150 0 5 -35 5 -35 190 -6 c105 -3 191 -6 192 -7 1 -1 3 -23 5 -49 3 -48 3 -48 41 -51 l37 -3 0 640 0 641 -1500 0 -1500 0 0 -740z" transform="translate(0.000000,300.000000) scale(0.100000,-0.100000)"/><path d="M1440 2067 c0 -45 -16 -70 -42 -66 -31 4 -37 -3 -40 -48 l-3 -48 -45 -3 c-50 -4 -59 -12 -52 -48 4 -20 10 -24 41 -24 53 0 63 -10 59 -61 l-3 -44 -47 -3 -47 -3 -3 -97 -3 -97 -52 -3 -52 -3 -3 48 -3 48 -45 0 -45 0 -5 -50 c-5 -50 -5 -50 -42 -53 -36 -3 -38 -5 -38 -37 0 -36 -22 -52 -57 -41 -34 11 -42 -7 -44 -94 -1 -47 -4 -91 -6 -97 -3 -7 -22 -13 -42 -13 -50 0 -59 -9 -63 -60 l-3 -45 -45 -5 c-41 -5 -45 -8 -50 -35 -4 -23 -11 -31 -30 -33 -37 -6 -50 -21 -50 -58 0 -23 6 -37 20 -44 13 -7 286 -10 867 -8 l848 3 0 85 0 85 -45 5 c-44 5 -45 6 -48 45 -4 48 -15 63 -50 67 -24 3 -28 8 -32 48 -5 45 -5 45 -47 48 -55 4 -65 23 -61 110 l3 67 -50 5 -50 5 -5 50 -5 50 -47 3 -47 3 -3 47 c-3 45 -4 47 -38 52 l-35 5 -5 85 -5 85 -50 5 -50 5 -3 47 -3 47 -47 3 -47 3 -5 50 -5 50 -47 3 -48 3 0 -44z" transform="translate(0.000000,300.000000) scale(0.100000,-0.100000)"/><path d="M658 1668 l-3 -53 -125 3 c-69 2 -131 -1 -138 -6 -7 -5 -14 -29 -15 -53 l-2 -44 -142 -3 -143 -3 0 -33 c0 -37 -12 -46 -61 -46 l-29 0 0 -715 0 -715 1500 0 1500 0 0 610 c0 493 -3 612 -13 616 -7 2 -68 6 -135 7 -136 2 -147 7 -137 64 5 28 3 33 -17 37 -56 11 -79 13 -84 5 -3 -5 -18 -9 -34 -9 -32 0 -50 23 -50 63 0 39 -22 49 -110 50 -78 0 -110 12 -96 35 10 17 -19 40 -59 44 l-40 5 -3 -93 -3 -94 45 0 c52 0 59 -8 60 -64 l1 -41 50 -5 50 -5 3 -47 3 -47 47 -3 47 -3 3 -87 3 -87 37 -3 37 -3 0 -105 0 -105 -1115 0 -1115 0 -3 157 -3 157 48 3 c46 3 48 4 53 38 5 34 7 35 55 40 49 5 50 6 51 40 1 19 2 40 3 47 0 6 16 13 34 15 l32 3 3 80 c3 122 4 123 60 127 45 3 47 4 52 38 5 34 7 35 52 38 l47 3 3 47 3 47 50 5 c49 5 50 6 51 40 2 61 5 60 -157 60 l-148 0 -3 -52z" transform="translate(0.000000,300.000000) scale(0.100000,-0.100000)"/></g></svg>